{
  "asset": {
    "version": "2.0",
    "generator": "THREE.GLTFExporter"
  },
  "scenes": [
    {
      "name": "Scene",
      "nodes": [
        0,
        1,
        10
      ]
    }
  ],
  "scene": 0,
  "nodes": [
    {
      "matrix": [
        1,
        0,
        0,
        0,
        0,
        1,
        0,
        0,
        0,
        0,
        1,
        0,
        10,
        20,
        15,
        1
      ],
      "name": "DirectionalLight 1",
      "extensions": {
        "KHR_lights_punctual": {
          "light": 0
        }
      }
    },
    {
      "matrix": [
        1,
        0,
        0,
        0,
        0,
        1,
        0,
        0,
        0,
        0,
        1,
        0,
        -11.65,
        6.949,
        -20.682,
        1
      ],
      "name": "PointLight 2",
      "extensions": {
        "KHR_lights_punctual": {
          "light": 1
        }
      }
    },
    {
      "name": "emoji_heart_013",
      "extras": {
        "name": "emoji_heart_01.3"
      },
      "mesh": 0
    },
    {
      "name": "emoji_heart_grp2",
      "extras": {
        "name": "emoji_heart_grp.2"
      },
      "children": [
        2
      ]
    },
    {
      "name": "emoji_star_026",
      "extras": {
        "name": "emoji_star_02.6"
      },
      "mesh": 1
    },
    {
      "name": "emoji_star_037",
      "extras": {
        "name": "emoji_star_03.7"
      },
      "mesh": 2
    },
    {
      "name": "emoji_star_015",
      "extras": {
        "name": "emoji_star_01.5"
      },
      "mesh": 3
    },
    {
      "name": "emoji_star_grp4",
      "extras": {
        "name": "emoji_star_grp.4"
      },
      "children": [
        4,
        5,
        6
      ]
    },
    {
      "name": "geo1",
      "extras": {
        "name": "geo.1"
      },
      "children": [
        3,
        7
      ]
    },
    {
      "matrix": [
        0.009999999776482582,
        0,
        0,
        0,
        0,
        0.009999999776482582,
        0,
        0,
        0,
        0,
        0.009999999776482582,
        0,
        0,
        0,
        0,
        1
      ],
      "name": "RootNode0",
      "extras": {
        "name": "RootNode.0"
      },
      "children": [
        8
      ]
    },
    {
      "name": "18.glb",
      "children": [
        9
      ]
    }
  ],
  "extensions": {
    "KHR_lights_punctual": {
      "lights": [
        {
          "name": "DirectionalLight 1",
          "color": [
            1,
            1,
            1
          ],
          "intensity": 1,
          "type": "directional"
        },
        {
          "name": "PointLight 2",
          "color": [
            1,
            1,
            1
          ],
          "intensity": 1,
          "type": "point"
        }
      ]
    }
  },
  "bufferViews": [
    {
      "buffer": 0,
      "byteOffset": 0,
      "byteLength": 14952,
      "target": 34962,
      "byteStride": 12
    },
    {
      "buffer": 0,
      "byteOffset": 14952,
      "byteLength": 14952,
      "target": 34962,
      "byteStride": 12
    },
    {
      "buffer": 0,
      "byteOffset": 29904,
      "byteLength": 19936,
      "target": 34962,
      "byteStride": 16
    },
    {
      "buffer": 0,
      "byteOffset": 49840,
      "byteLength": 9968,
      "target": 34962,
      "byteStride": 8
    },
    {
      "buffer": 0,
      "byteOffset": 59808,
      "byteLength": 14016,
      "target": 34963
    },
    {
      "buffer": 0,
      "byteOffset": 73824,
      "byteLength": 10584,
      "target": 34962,
      "byteStride": 12
    },
    {
      "buffer": 0,
      "byteOffset": 84408,
      "byteLength": 10584,
      "target": 34962,
      "byteStride": 12
    },
    {
      "buffer": 0,
      "byteOffset": 94992,
      "byteLength": 14112,
      "target": 34962,
      "byteStride": 16
    },
    {
      "buffer": 0,
      "byteOffset": 109104,
      "byteLength": 7056,
      "target": 34962,
      "byteStride": 8
    },
    {
      "buffer": 0,
      "byteOffset": 116160,
      "byteLength": 9984,
      "target": 34963
    },
    {
      "buffer": 0,
      "byteOffset": 126144,
      "byteLength": 14112,
      "target": 34962,
      "byteStride": 16
    },
    {
      "buffer": 0,
      "byteOffset": 140256,
      "byteLength": 10584,
      "target": 34962,
      "byteStride": 12
    },
    {
      "buffer": 0,
      "byteOffset": 150840,
      "byteLength": 10584,
      "target": 34962,
      "byteStride": 12
    },
    {
      "buffer": 0,
      "byteOffset": 161424,
      "byteLength": 7056,
      "target": 34962,
      "byteStride": 8
    },
    {
      "buffer": 0,
      "byteOffset": 168480,
      "byteLength": 9984,
      "target": 34963
    },
    {
      "buffer": 0,
      "byteOffset": 178464,
      "byteLength": 14112,
      "target": 34962,
      "byteStride": 16
    },
    {
      "buffer": 0,
      "byteOffset": 192576,
      "byteLength": 10584,
      "target": 34962,
      "byteStride": 12
    },
    {
      "buffer": 0,
      "byteOffset": 203160,
      "byteLength": 10584,
      "target": 34962,
      "byteStride": 12
    },
    {
      "buffer": 0,
      "byteOffset": 213744,
      "byteLength": 7056,
      "target": 34962,
      "byteStride": 8
    },
    {
      "buffer": 0,
      "byteOffset": 220800,
      "byteLength": 9984,
      "target": 34963
    }
  ],
  "buffers": [
    {
      "byteLength": 230784,
      "uri": "data:application/octet-stream;base64,"
    }
  ],
  "accessors": [
    {
      "bufferView": 0,
      "componentType": 5126,
      "count": 1246,
      "max": [
        0.32253292202949524,
        0.5796805620193481,
        0.13985466957092285
      ],
      "min": [
        -0.3225329518318176,
        0,
        -0.13985472917556763
      ],
      "type": "VEC3"
    },
    {
      "bufferView": 1,
      "componentType": 5126,
      "count": 1246,
      "max": [
        0.998701274394989,
        1,
        0.9996111989021301
      ],
      "min": [
        -0.9986986517906189,
        -1,
        -0.999611496925354
      ],
      "type": "VEC3"
    },
    {
      "bufferView": 2,
      "componentType": 5126,
      "count": 1246,
      "max": [
        0.14704269170761108,
        0.8333430290222168,
        0.9999926686286926,
        1
      ],
      "min": [
        -0.9058204889297485,
        -0.8322101831436157,
        -0.9999922513961792,
        1
      ],
      "type": "VEC4"
    },
    {
      "bufferView": 3,
      "componentType": 5126,
      "count": 1246,
      "max": [
        0.9821803569793701,
        0.9823524355888367
      ],
      "min": [
        0.017609238624572754,
        0.01688981056213379
      ],
      "type": "VEC2"
    },
    {
      "bufferView": 4,
      "componentType": 5123,
      "count": 7008,
      "max": [
        1245
      ],
      "min": [
        0
      ],
      "type": "SCALAR"
    },
    {
      "bufferView": 5,
      "componentType": 5126,
      "count": 882,
      "max": [
        0.2615590989589691,
        0.45880910754203796,
        0.1495719999074936
      ],
      "min": [
        0.1635289192199707,
        0.3607788681983948,
        0.13182081282138824
      ],
      "type": "VEC3"
    },
    {
      "bufferView": 6,
      "componentType": 5126,
      "count": 882,
      "max": [
        0.999883770942688,
        0.9998841881752014,
        0.9999995231628418
      ],
      "min": [
        -0.9998838305473328,
        -0.999884307384491,
        -0.9999995231628418
      ],
      "type": "VEC3"
    },
    {
      "bufferView": 7,
      "componentType": 5126,
      "count": 882,
      "max": [
        0.8747720122337341,
        0.8690722584724426,
        0.9999857544898987,
        1
      ],
      "min": [
        -0.31329381465911865,
        -0.8573735952377319,
        -0.9999972581863403,
        1
      ],
      "type": "VEC4"
    },
    {
      "bufferView": 8,
      "componentType": 5126,
      "count": 882,
      "max": [
        0.9828240275382996,
        0.9833000898361206
      ],
      "min": [
        0.016057580709457397,
        0.01703166961669922
      ],
      "type": "VEC2"
    },
    {
      "bufferView": 9,
      "componentType": 5123,
      "count": 4992,
      "max": [
        881
      ],
      "min": [
        0
      ],
      "type": "SCALAR"
    },
    {
      "bufferView": 10,
      "componentType": 5126,
      "count": 882,
      "max": [
        0.8747729659080505,
        0.8690716624259949,
        0.9999857544898987,
        1
      ],
      "min": [
        -0.31329211592674255,
        -0.8573727607727051,
        -0.999997079372406,
        1
      ],
      "type": "VEC4"
    },
    {
      "bufferView": 11,
      "componentType": 5126,
      "count": 882,
      "max": [
        0.999883770942688,
        0.9998841285705566,
        0.9999995231628418
      ],
      "min": [
        -0.9998838305473328,
        -0.9998841285705566,
        -0.9999995231628418
      ],
      "type": "VEC3"
    },
    {
      "bufferView": 12,
      "componentType": 5126,
      "count": 882,
      "max": [
        -0.05166849493980408,
        0.1790304183959961,
        0.1070474162697792
      ],
      "min": [
        -0.11844878643751144,
        0.11225005239248276,
        0.09495491534471512
      ],
      "type": "VEC3"
    },
    {
      "bufferView": 13,
      "componentType": 5126,
      "count": 882,
      "max": [
        0.9828240275382996,
        0.9833000898361206
      ],
      "min": [
        0.016057580709457397,
        0.01703166961669922
      ],
      "type": "VEC2"
    },
    {
      "bufferView": 14,
      "componentType": 5123,
      "count": 4992,
      "max": [
        881
      ],
      "min": [
        0
      ],
      "type": "SCALAR"
    },
    {
      "bufferView": 15,
      "componentType": 5126,
      "count": 882,
      "max": [
        0.8747669458389282,
        0.8690767884254456,
        0.9999858140945435,
        1
      ],
      "min": [
        -0.3132959306240082,
        -0.8573622703552246,
        -0.9999972581863403,
        1
      ],
      "type": "VEC4"
    },
    {
      "bufferView": 16,
      "componentType": 5126,
      "count": 882,
      "max": [
        0.9998837113380432,
        0.9998841881752014,
        0.9999995231628418
      ],
      "min": [
        -0.9998838305473328,
        -0.9998842477798462,
        -0.9999995231628418
      ],
      "type": "VEC3"
    },
    {
      "bufferView": 17,
      "componentType": 5126,
      "count": 882,
      "max": [
        -0.06144045293331146,
        0.5676519870758057,
        0.15971554815769196
      ],
      "min": [
        -0.2575007677078247,
        0.3715914487838745,
        0.12421316653490067
      ],
      "type": "VEC3"
    },
    {
      "bufferView": 18,
      "componentType": 5126,
      "count": 882,
      "max": [
        0.9828240275382996,
        0.9833000898361206
      ],
      "min": [
        0.016057580709457397,
        0.01703166961669922
      ],
      "type": "VEC2"
    },
    {
      "bufferView": 19,
      "componentType": 5123,
      "count": 4992,
      "max": [
        881
      ],
      "min": [
        0
      ],
      "type": "SCALAR"
    }
  ],
  "materials": [
    {
      "pbrMetallicRoughness": {
        "baseColorTexture": {
          "index": 0
        }
      },
      "doubleSided": true,
      "extensions": {
        "KHR_materials_pbrSpecularGlossiness": {
          "specularFactor": [
            1,
            1,
            1
          ],
          "glossinessFactor": 1,
          "diffuseTexture": {
            "index": 0
          },
          "specularGlossinessTexture": {
            "index": 1
          }
        }
      }
    },
    {
      "pbrMetallicRoughness": {
        "baseColorTexture": {
          "index": 2
        }
      },
      "emissiveFactor": [
        1,
        1,
        1
      ],
      "emissiveTexture": {
        "index": 3
      },
      "doubleSided": true,
      "extensions": {
        "KHR_materials_pbrSpecularGlossiness": {
          "specularFactor": [
            1,
            1,
            1
          ],
          "glossinessFactor": 1,
          "diffuseTexture": {
            "index": 2
          },
          "specularGlossinessTexture": {
            "index": 4
          }
        }
      }
    },
    {
      "pbrMetallicRoughness": {
        "baseColorTexture": {
          "index": 5
        }
      },
      "emissiveFactor": [
        1,
        1,
        1
      ],
      "emissiveTexture": {
        "index": 6
      },
      "doubleSided": true,
      "extensions": {
        "KHR_materials_pbrSpecularGlossiness": {
          "specularFactor": [
            1,
            1,
            1
          ],
          "glossinessFactor": 1,
          "diffuseTexture": {
            "index": 5
          },
          "specularGlossinessTexture": {
            "index": 7
          }
        }
      }
    },
    {
      "pbrMetallicRoughness": {
        "baseColorTexture": {
          "index": 8
        }
      },
      "emissiveFactor": [
        1,
        1,
        1
      ],
      "emissiveTexture": {
        "index": 9
      },
      "doubleSided": true,
      "extensions": {
        "KHR_materials_pbrSpecularGlossiness": {
          "specularFactor": [
            1,
            1,
            1
          ],
          "glossinessFactor": 1,
          "diffuseTexture": {
            "index": 8
          },
          "specularGlossinessTexture": {
            "index": 10
          }
        }
      }
    }
  ],
  "textures": [
    {
      "sampler": 0,
      "source": 0
    },
    {
      "sampler": 1,
      "source": 1
    },
    {
      "sampler": 2,
      "source": 2
    },
    {
      "sampler": 3,
      "source": 3
    },
    {
      "sampler": 4,
      "source": 4
    },
    {
      "sampler": 5,
      "source": 5
    },
    {
      "sampler": 6,
      "source": 6
    },
    {
      "sampler": 7,
      "source": 7
    },
    {
      "sampler": 8,
      "source": 8
    },
    {
      "sampler": 9,
      "source": 9
    },
    {
      "sampler": 10,
      "source": 10
    }
  ],
  "samplers": [
    {
      "magFilter": 9729,
      "minFilter": 9985,
      "wrapS": 10497,
      "wrapT": 10497
    },
    {
      "magFilter": 9729,
      "minFilter": 9985,
      "wrapS": 10497,
      "wrapT": 10497
    },
    {
      "magFilter": 9729,
      "minFilter": 9985,
      "wrapS": 10497,
      "wrapT": 10497
    },
    {
      "magFilter": 9729,
      "minFilter": 9985,
      "wrapS": 10497,
      "wrapT": 10497
    },
    {
      "magFilter": 9729,
      "minFilter": 9985,
      "wrapS": 10497,
      "wrapT": 10497
    },
    {
      "magFilter": 9729,
      "minFilter": 9985,
      "wrapS": 10497,
      "wrapT": 10497
    },
    {
      "magFilter": 9729,
      "minFilter": 9985,
      "wrapS": 10497,
      "wrapT": 10497
    },
    {
      "magFilter": 9729,
      "minFilter": 9985,
      "wrapS": 10497,
      "wrapT": 10497
    },
    {
      "magFilter": 9729,
      "minFilter": 9985,
      "wrapS": 10497,
      "wrapT": 10497
    },
    {
      "magFilter": 9729,
      "minFilter": 9985,
      "wrapS": 10497,
      "wrapT": 10497
    },
    {
      "magFilter": 9729,
      "minFilter": 9985,
      "wrapS": 10497,
      "wrapT": 10497
    }
  ],
  "images": [
    {
      "mimeType": "image/png",
      "uri": "data:image/png;base64,"
    },
    {
      "mimeType": "image/png",
      "uri": "data:image/png;base64,"
    },
    {
      "mimeType": "image/png",
      "uri": "data:image/png;base64,"
    },
    {
      "mimeType": "image/png",
      "uri": "data:image/png;base64,"
    },
    {
      "mimeType": "image/png",
      "uri": "data:image/png;base64,"
    },
    {
      "mimeType": "image/png",
      "uri": "data:image/png;base64,"
    },
    {
      "mimeType": "image/png",
      "uri": "data:image/png;base64,"
    },
    {
      "mimeType": "image/png",
      "uri": "data:image/png;base64,"
    },
    {
      "mimeType": "image/png",
      "uri": "data:image/png;base64,"
    },
    {
      "mimeType": "image/png",
      "uri": "data:image/png;base64,"
    },
    {
      "mimeType": "image/png",
      "uri": "data:image/png;base64,"
    }
  ],
  "meshes": [
    {
      "primitives": [
        {
          "mode": 4,
          "attributes": {
            "POSITION": 0,
            "NORMAL": 1,
            "TANGENT": 2,
            "TEXCOORD_0": 3
          },
          "indices": 4,
          "material": 0
        }
      ]
    },
    {
      "primitives": [
        {
          "mode": 4,
          "attributes": {
            "POSITION": 5,
            "NORMAL": 6,
            "TANGENT": 7,
            "TEXCOORD_0": 8
          },
          "indices": 9,
          "material": 1
        }
      ]
    },
    {
      "primitives": [
        {
          "mode": 4,
          "attributes": {
            "TANGENT": 10,
            "NORMAL": 11,
            "POSITION": 12,
            "TEXCOORD_0": 13
          },
          "indices": 14,
          "material": 2
        }
      ]
    },
    {
      "primitives": [
        {
          "mode": 4,
          "attributes": {
            "TANGENT": 15,
            "NORMAL": 16,
            "POSITION": 17,
            "TEXCOORD_0": 18
          },
          "indices": 19,
          "material": 3
        }
      ]
    }
  ],
  "extensionsUsed": [
    "KHR_lights_punctual",
    "KHR_materials_pbrSpecularGlossiness"
  ]
}